<?xml version="1.0" encoding="iso-8859-1"?>
<!-- Generator: Adobe Illustrator 18.1.1, SVG Export Plug-In . SVG Version: 6.00 Build 0)  -->
<svg version="1.1" id="Capa_1" xmlns="http://www.w3.org/2000/svg" xmlns:xlink="http://www.w3.org/1999/xlink" 
     x="0px" y="0px"
	 stroke="black" stroke-width="13"
	 viewBox="-5 -10 340 345" style="enable-background:new 0 0 333.196 333.196;" xml:space="preserve">
<g>
	<path d="M306.819,236.234c-25.216,0-52.21-59.555-52.21-148.223C254.609,39.483,215.127,0,166.598,0
		S78.587,39.483,78.587,88.011c0,88.662-26.994,148.223-52.21,148.223c-3.294,0-5.967,2.667-5.967,5.967v37.293
		c0,3.3,2.673,5.967,5.967,5.967h86.872c2.983,26.809,25.759,47.735,53.35,47.735c27.597,0,50.366-20.926,53.35-47.735h86.872
		c3.3,0,5.967-2.667,5.967-5.967v-37.293C312.786,238.902,310.119,236.234,306.819,236.234z M166.598,321.262
		c-21.009,0-38.439-15.585-41.344-35.801h82.683C205.037,305.677,187.607,321.262,166.598,321.262z M300.853,273.527h-86.52h-95.47
		h-86.52v-26.01c33.068-7.292,58.177-74.723,58.177-159.5c0-41.947,34.131-76.078,76.078-76.078s76.078,34.13,76.078,76.078
		c0,84.777,25.109,152.215,58.177,159.5V273.527z"/>
</g>
<g>
</g>
<g>
</g>
<g>
</g>
<g>
</g>
<g>
</g>
<g>
</g>
<g>
</g>
<g>
</g>
<g>
</g>
<g>
</g>
<g>
</g>
<g>
</g>
<g>
</g>
<g>
</g>
<g>
</g>
</svg>
