<?xml version="1.0" encoding="iso-8859-1"?>
<!-- Generator: Adobe Illustrator 19.0.0, SVG Export Plug-In . SVG Version: 6.00 Build 0)  -->
<svg version="1.1" id="Layer_1" xmlns="http://www.w3.org/2000/svg" xmlns:xlink="http://www.w3.org/1999/xlink" x="0px" y="0px"
	 viewBox="0 0 512 512" style="enable-background:new 0 0 512 512;" xml:space="preserve">
<g>
	<g>
		<path d="M372.199,42.485H41.759C18.733,42.485,0,61.23,0,84.272v267.199c0,23.042,18.733,41.788,41.759,41.788H89.84
			l-22.709,48.779c-6.537,14.043,8.311,28.247,21.976,21.584l144.281-70.363h138.812c23.026,0,41.759-18.746,41.759-41.788V84.272
			C413.957,61.23,395.225,42.485,372.199,42.485z M327.898,305.021H86.06c-9.024,0-16.34-7.316-16.34-16.34
			c0-9.024,7.316-16.34,16.34-16.34h241.838c9.024,0,16.34,7.316,16.34,16.34C344.238,297.705,336.922,305.021,327.898,305.021z
			 M327.898,234.212H86.06c-9.024,0-16.34-7.316-16.34-16.34c0-9.024,7.316-16.34,16.34-16.34h241.838
			c9.024,0,16.34,7.316,16.34,16.34C344.238,226.896,336.922,234.212,327.898,234.212z M327.898,163.404H86.06
			c-9.024,0-16.34-7.316-16.34-16.34s7.316-16.34,16.34-16.34h241.838c9.024,0,16.34,7.316,16.34,16.34
			S336.922,163.404,327.898,163.404z"/>
	</g>
</g>
<g>
	<g>
		<path d="M470.267,118.74h-18.181c-3.008,0-5.447,2.439-5.447,5.447v227.284c0,41.062-33.393,74.469-74.439,74.469H242.188
			c-0.827,0-1.644,0.188-2.388,0.551l-45.216,22.052c-3.362,1.639-4.117,6.109-1.471,8.752c7.556,7.545,17.978,12.22,29.474,12.22
			h247.659C493.307,469.514,512,450.821,512,427.76V160.538C512,137.49,493.278,118.74,470.267,118.74z"/>
	</g>
</g>
<g>
</g>
<g>
</g>
<g>
</g>
<g>
</g>
<g>
</g>
<g>
</g>
<g>
</g>
<g>
</g>
<g>
</g>
<g>
</g>
<g>
</g>
<g>
</g>
<g>
</g>
<g>
</g>
<g>
</g>
</svg>
