<?xml version="1.0" encoding="iso-8859-1"?>
<!-- Generator: Adobe Illustrator 19.0.0, SVG Export Plug-In . SVG Version: 6.00 Build 0)  -->
<svg version="1.1" id="Layer_1" xmlns="http://www.w3.org/2000/svg" xmlns:xlink="http://www.w3.org/1999/xlink" x="0px" y="0px"
	 viewBox="0 0 457.01 457.01" style="enable-background:new 0 0 457.01 457.01;" xml:space="preserve">
<g>
	<g>
		<path d="M228.504,0C132.978,0,55.262,77.716,55.262,173.242c0,72.851,36.307,141.856,82.001,198.566
			c39.92,49.544,79.411,80.427,81.072,81.717c2.992,2.324,6.581,3.485,10.17,3.485c3.589,0,7.178-1.161,10.17-3.485
			c1.661-1.29,41.152-32.173,81.072-81.717c45.716-56.737,82.001-125.737,82.001-198.566C401.747,77.716,324.031,0,228.504,0z
			 M228.504,250.918c-45.706,0-82.891-37.185-82.891-82.891c0-45.707,37.185-82.892,82.891-82.892s82.892,37.185,82.892,82.892
			C311.396,213.733,274.211,250.918,228.504,250.918z"/>
	</g>
</g>
<g>
</g>
<g>
</g>
<g>
</g>
<g>
</g>
<g>
</g>
<g>
</g>
<g>
</g>
<g>
</g>
<g>
</g>
<g>
</g>
<g>
</g>
<g>
</g>
<g>
</g>
<g>
</g>
<g>
</g>
</svg>
