
<?xml version="1.0" encoding="iso-8859-1"?>
<!-- Generator: Adobe Illustrator 19.0.0, SVG Export Plug-In . SVG Version: 6.00 Build 0)  -->
<svg version="1.1" id="Layer_1" xmlns="http://www.w3.org/2000/svg" xmlns:xlink="http://www.w3.org/1999/xlink" x="0px" y="0px"
	 viewBox="0 0 295.996 295.996" style="enable-background:new 0 0 295.996 295.996;" xml:space="preserve">
<g>
	<path style="fill:#FFCE00;" d="M270.996,123.998c0-11.334-1.363-22.348-3.907-32.9c-7.269-15.152-17.35-28.708-29.558-39.996
		c-22.391-13.376-48.766-20.666-76.771-19.645C83.492,34.273,23.139,99.196,25.955,176.463c0.412,11.304,2.17,22.239,5.087,32.673
		c6.303,12.01,14.397,22.938,23.934,32.42c21.892,14.189,47.99,22.44,76.022,22.44C208.316,263.996,270.996,201.316,270.996,123.998
		z M197.497,99.998c8.836,0,16,7.164,16,16s-7.164,16-16,16s-16-7.164-16-16S188.661,99.998,197.497,99.998z M98.497,99.998
		c8.836,0,16,7.164,16,16s-7.164,16-16,16s-16-7.164-16-16S89.661,99.998,98.497,99.998z M51.664,195.594v-16
		c9,0,15.598-6.997,15.598-15.598c0-8.6-6.598-15.596-15.598-15.596v-16c16,0,30.2,12.712,31.634,28.854
		c17.379,16.889,40.228,26.148,64.615,26.148c24.146,0,47.172-9.458,64.407-26.152c1.438-16.14,15.343-28.85,31.343-28.85v16
		c-8,0-15.598,6.996-15.598,15.596c0,8.601,7.598,15.598,15.598,15.598v16c-11,0-21.969-6.638-27.445-16.409
		c-19.222,15.544-43.265,24.218-68.305,24.218c-25.312,0-49.26-8.503-68.53-24.189C73.902,188.97,63.664,195.594,51.664,195.594z"/>
	<path style="fill:#FFB100;" d="M267.089,91.098c2.544,10.553,3.907,21.566,3.907,32.9c0,77.318-62.68,139.998-139.998,139.998
		c-28.032,0-54.131-8.251-76.022-22.44c23.88,23.744,56.767,38.44,93.022,38.44c72.784,0,131.998-59.214,131.998-131.998
		C279.996,127.636,275.358,108.337,267.089,91.098z"/>
	<path style="fill:#FFE454;" d="M160.76,31.457c28.006-1.021,54.381,6.269,76.771,19.645C213.985,29.328,182.521,16,147.998,16
		C75.214,16,16,75.214,16,147.998c0,22.049,5.442,42.849,15.042,61.138c-2.917-10.434-4.675-21.369-5.087-32.673
		C23.139,99.196,83.492,34.273,160.76,31.457z"/>
	<path d="M147.998,0C66.392,0,0,66.392,0,147.998s66.392,147.998,147.998,147.998s147.998-66.392,147.998-147.998
		S229.605,0,147.998,0z M147.998,279.996c-36.256,0-69.143-14.696-93.022-38.44c-9.536-9.482-17.631-20.41-23.934-32.42
		C21.442,190.847,16,170.047,16,147.998C16,75.214,75.214,16,147.998,16c34.523,0,65.987,13.328,89.533,35.102
		c12.208,11.288,22.289,24.844,29.558,39.996c8.27,17.239,12.907,36.538,12.907,56.9
		C279.996,220.782,220.782,279.996,147.998,279.996z M256.688,59.774c0.101,0.123,0.203,0.244,0.303,0.368
		C256.891,60.019,256.788,59.897,256.688,59.774z"/>
	<circle cx="98.497" cy="115.998" r="16"/>
	<circle cx="197.497" cy="115.998" r="16"/>
	<path d="M147.997,203.402c25.04,0,49.001-8.674,68.222-24.218c5.476,9.771,16.445,16.409,27.445,16.409v-16
		c-8,0-15.598-6.997-15.598-15.598c0-8.6,7.598-15.596,15.598-15.596v-16c-16,0-29.864,12.71-31.301,28.85
		c-17.235,16.694-40.302,26.152-64.449,26.152c-24.388,0-47.278-9.26-64.657-26.148C81.822,145.112,67.664,132.4,51.664,132.4v16
		c9,0,15.598,6.996,15.598,15.596c0,8.601-6.598,15.598-15.598,15.598v16c12,0,22.28-6.624,27.761-16.38
		C98.696,194.899,122.686,203.402,147.997,203.402z"/>
</g>
<g>
</g>
<g>
</g>
<g>
</g>
<g>
</g>
<g>
</g>
<g>
</g>
<g>
</g>
<g>
</g>
<g>
</g>
<g>
</g>
<g>
</g>
<g>
</g>
<g>
</g>
<g>
</g>
<g>
</g>
</svg>
